<?xml version="1.0" encoding="UTF-8" standalone="no"?>
<!-- Created with Inkscape (http://www.inkscape.org/) -->

<svg
   xmlns:dc="http://purl.org/dc/elements/1.1/"
   xmlns:cc="http://creativecommons.org/ns#"
   xmlns:rdf="http://www.w3.org/1999/02/22-rdf-syntax-ns#"
   xmlns:svg="http://www.w3.org/2000/svg"
   xmlns="http://www.w3.org/2000/svg"
   xmlns:sodipodi="http://sodipodi.sourceforge.net/DTD/sodipodi-0.dtd"
   xmlns:inkscape="http://www.inkscape.org/namespaces/inkscape"
   id="svg4933"
   version="1.1"
   inkscape:version="0.91 r"
   width="512"
   height="512"
   viewBox="0 0 512 512"
   sodipodi:docname="linked_in.svg">
  <metadata
     id="metadata4939">
    <rdf:RDF>
      <cc:Work
         rdf:about="">
        <dc:format>image/svg+xml</dc:format>
        <dc:type
           rdf:resource="http://purl.org/dc/dcmitype/StillImage" />
        <dc:title />
      </cc:Work>
    </rdf:RDF>
  </metadata>
  <defs
     id="defs4937" />
  <sodipodi:namedview
     pagecolor="#ffffff"
     bordercolor="#666666"
     borderopacity="1"
     objecttolerance="10"
     gridtolerance="10"
     guidetolerance="10"
     inkscape:pageopacity="0"
     inkscape:pageshadow="2"
     inkscape:window-width="1920"
     inkscape:window-height="1056"
     id="namedview4935"
     showgrid="false"
     showguides="true"
     inkscape:guide-bbox="true"
     inkscape:zoom="0.921875"
     inkscape:cx="34.635198"
     inkscape:cy="239.51609"
     inkscape:window-x="0"
     inkscape:window-y="24"
     inkscape:window-maximized="1"
     inkscape:current-layer="layer3">
    <sodipodi:guide
       position="256,256"
       orientation="0,1"
       id="guide5483"
       inkscape:label=""
       inkscape:color="rgb(0,0,255)" />
    <sodipodi:guide
       position="256,256"
       orientation="1,0"
       id="guide5485"
       inkscape:label=""
       inkscape:color="rgb(0,0,255)" />
  </sodipodi:namedview>
  <g
     inkscape:groupmode="layer"
     id="layer3"
     inkscape:label="Layer 1"
     style="display:inline">
    <path
       style="opacity:1;fill:#8c8f8f;fill-opacity:0.53333285;stroke:#8c8f8f;stroke-width:16.47114754;stroke-linejoin:round;stroke-miterlimit:4;stroke-dasharray:none;stroke-opacity:1"
       d="m 59.179951,9.1917098 c -27.692956,0 -49.9882412,22.2952852 -49.9882412,49.9882412 l 0,393.640109 c 0,27.69295 22.2952852,49.98823 49.9882412,49.98823 l 393.640109,0 c 27.69295,0 49.98823,-22.29528 49.98823,-49.98823 l 0,-393.640109 c 0,-27.692956 -22.29528,-49.9882412 -49.98823,-49.9882412 l -393.640109,0 z M 122.22358,88.718718 a 41.466746,41.466746 0 0 1 41.46595,41.465962 41.466746,41.466746 0 0 1 -41.46595,41.46594 41.466746,41.466746 0 0 1 -41.468836,-41.46594 41.466746,41.466746 0 0 1 41.468836,-41.465962 z m 213.7258,107.237532 c 32.98182,-0.0645 79.91374,8.88851 87.90177,72.26021 8.52056,67.59647 4.54465,153.9395 4.54465,153.9395 l -74.41538,0 -2.27086,-134.05702 c 0,0 -34.83072,-73.73724 -77.25325,-10.16254 l 0,144.50305 -73.84547,0 0,-223.23745 73.84547,0 0,26.37112 c 11.09503,-10.98072 32.42376,-28.71345 55.09989,-29.49537 2.05913,-0.0709 4.19438,-0.11716 6.39318,-0.12145 z m -250.649984,2.96226 73.845484,0 0,223.23745 -73.845484,0 0,-223.23745 z"
       id="rect5487"
       inkscape:connector-curvature="0" />
  </g>
</svg>
