<?xml version="1.0" encoding="UTF-8" standalone="no"?>
<!-- Created with Inkscape (http://www.inkscape.org/) -->

<svg
   xmlns:dc="http://purl.org/dc/elements/1.1/"
   xmlns:cc="http://creativecommons.org/ns#"
   xmlns:rdf="http://www.w3.org/1999/02/22-rdf-syntax-ns#"
   xmlns:svg="http://www.w3.org/2000/svg"
   xmlns="http://www.w3.org/2000/svg"
   xmlns:sodipodi="http://sodipodi.sourceforge.net/DTD/sodipodi-0.dtd"
   xmlns:inkscape="http://www.inkscape.org/namespaces/inkscape"
   width="400"
   height="400"
   viewBox="0 0 400 400"
   id="svg2"
   version="1.1"
   inkscape:version="0.91 r"
   sodipodi:docname="day.svg">
  <defs
     id="defs4" />
  <sodipodi:namedview
     id="base"
     pagecolor="#b0b5b7"
     bordercolor="#666666"
     borderopacity="1.0"
     inkscape:pageopacity="0"
     inkscape:pageshadow="2"
     inkscape:zoom="2.0000001"
     inkscape:cx="196.21323"
     inkscape:cy="159.64091"
     inkscape:document-units="px"
     inkscape:current-layer="g4323"
     showgrid="true"
     showborder="true"
     units="px"
     inkscape:window-width="1920"
     inkscape:window-height="1056"
     inkscape:window-x="0"
     inkscape:window-y="24"
     inkscape:window-maximized="1"
     showguides="true"
     inkscape:guide-bbox="true">
    <inkscape:grid
       type="xygrid"
       id="grid4140" />
    <sodipodi:guide
       position="200,365"
       orientation="1,0"
       id="guide4210" />
    <sodipodi:guide
       position="230,200"
       orientation="0,1"
       id="guide4212" />
    <sodipodi:guide
       position="20,400"
       orientation="1,0"
       id="guide4214" />
    <sodipodi:guide
       position="380,360"
       orientation="1,0"
       id="guide4216" />
    <sodipodi:guide
       position="80,380"
       orientation="0,1"
       id="guide4218" />
    <sodipodi:guide
       position="105,20"
       orientation="0,1"
       id="guide4220" />
  </sodipodi:namedview>
  <metadata
     id="metadata7">
    <rdf:RDF>
      <cc:Work
         rdf:about="">
        <dc:format>image/svg+xml</dc:format>
        <dc:type
           rdf:resource="http://purl.org/dc/dcmitype/StillImage" />
        <dc:title></dc:title>
      </cc:Work>
    </rdf:RDF>
  </metadata>
  <g
     inkscape:groupmode="layer"
     id="layer1"
     inkscape:label="circle"
     style="display:none">
    <circle
       style="fill:#ff3aff;fill-opacity:1;stroke:none;stroke-width:35;stroke-linejoin:round;stroke-miterlimit:4;stroke-dasharray:none;stroke-opacity:1"
       id="path4222"
       cx="200"
       cy="200"
       r="180" />
  </g>
  <g
     inkscape:groupmode="layer"
     id="layer2"
     inkscape:label="one"
     style="display:inline">
    <path
       style="display:inline;fill:#ffffff;fill-opacity:1;stroke:none;stroke-width:35;stroke-linejoin:round;stroke-miterlimit:4;stroke-dasharray:none;stroke-opacity:1"
       d="M 200,20 A 180,180.125 0 0 0 20,200.125 180,180.125 0 0 0 200,380.25 180,180.125 0 0 0 380,200.125 180,180.125 0 0 0 200,20 Z m -12.91016,87.50586 33.06836,0 0,190.3418 -40.23047,0 0,-110.14258 0,-8.07227 c 0.0868,-3.21141 0.17493,-6.50953 0.26172,-9.89453 0.17359,-3.47179 0.30383,-6.94422 0.39063,-10.41601 0.17359,-3.4718 0.30383,-6.63968 0.39062,-9.50391 -0.43397,0.52077 -1.1733,1.30221 -2.21484,2.34375 l -3.51367,3.51562 c -1.30192,1.21513 -2.64839,2.47347 -4.03711,3.77539 -1.38872,1.30193 -2.73324,2.47409 -4.03516,3.51563 l -21.87304,17.57617 -19.5293,-24.2168 61.32226,-48.82226 z"
       id="path4222-9"
       inkscape:connector-curvature="0" />
  </g>
  <g
     inkscape:label="week"
     id="g4299"
     inkscape:groupmode="layer"
     style="display:none">
    <path
       style="display:inline;fill:#ffffff;fill-opacity:1;stroke:none;stroke-width:35;stroke-linejoin:round;stroke-miterlimit:4;stroke-dasharray:none;stroke-opacity:1"
       d="M 200,20 A 180,180.125 0 0 0 20,200.125 180,180.125 0 0 0 200,380.25 180,180.125 0 0 0 380,200.125 180,180.125 0 0 0 200,20 Z m -62.04883,87.76562 131.23438,0 0,25.25782 -69.39258,164.82422 -42.05274,0 67.70118,-156.23047 -87.49024,0 0,-33.85157 z"
       id="ellipse4301"
       inkscape:connector-curvature="0" />
  </g>
  <g
     inkscape:groupmode="layer"
     id="g4311"
     inkscape:label="month"
     style="display:none">
    <path
       style="display:inline;fill:#ffffff;fill-opacity:1;stroke:none;stroke-width:35;stroke-linejoin:round;stroke-miterlimit:4;stroke-dasharray:none;stroke-opacity:1"
       d="M 200,20 A 180,180.125 0 0 0 20,200.125 180,180.125 0 0 0 200,380.25 180,180.125 0 0 0 380,200.125 180,180.125 0 0 0 200,20 Z m 65.9668,96.28516 c 9.67772,0 18.12581,1.95782 25.3457,5.875 7.21989,3.91717 13.24903,9.60242 18.08789,17.05273 4.83886,7.45031 8.44905,16.55166 10.83008,27.30469 2.38103,10.75302 3.57226,22.96501 3.57226,36.63672 0,13.59489 -1.07595,25.73003 -3.22656,36.40625 -2.0738,10.67621 -5.45342,19.73914 -10.13867,27.18945 -4.60844,7.45031 -10.59915,13.13361 -17.97266,17.05078 -7.29669,3.91717 -16.12906,5.87695 -26.49804,5.87695 -9.75453,0 -18.24105,-1.95978 -25.46094,-5.87695 -7.21989,-3.91717 -13.21256,-9.60047 -17.97461,-17.05078 -4.76205,-7.45031 -8.33186,-16.51324 -10.71289,-27.18945 -2.30422,-10.67622 -3.45703,-22.81136 -3.45703,-36.40625 0,-13.5949 1.03753,-25.76846 3.11133,-36.52149 2.1506,-10.75302 5.53023,-19.85633 10.13867,-27.30664 4.60844,-7.45031 10.56072,-13.13361 17.85742,-17.05078 7.2967,-3.99398 16.12906,-5.99023 26.49805,-5.99023 z m -134.22071,0.23046 c 8.29519,0 15.82299,0.92225 22.58203,2.76563 6.83586,1.76657 12.67286,4.37766 17.51172,7.83398 4.83886,3.37953 8.56434,7.56417 11.17578,12.55665 2.68826,4.91566 4.03125,10.56249 4.03126,16.9375 0,5.83735 -0.96068,11.09795 -2.88086,15.7832 -1.84338,4.60844 -4.41604,8.67975 -7.71875,12.21289 -3.22591,3.45633 -7.06666,6.37483 -11.52149,8.75586 -4.37802,2.30422 -9.13906,4.06991 -14.28516,5.29883 l 0,0.6914 c 13.5949,1.68976 23.88749,5.83793 30.87696,12.44336 6.98946,6.52862 10.48437,15.36099 10.48437,26.49805 0,7.3735 -1.34494,14.20961 -4.0332,20.50781 -2.61145,6.22139 -6.68276,11.6357 -12.21289,16.24414 -5.45332,4.60844 -12.36628,8.21863 -20.73828,10.83008 -8.29519,2.53464 -18.08628,3.80273 -29.37696,3.80273 -9.06326,0 -17.59016,-0.76854 -25.57812,-2.30468 -7.987961,-1.45934 -15.436951,-3.72459 -22.349609,-6.79688 l 0,-30.30078 c 3.456329,1.84338 7.102993,3.45536 10.943359,4.83789 3.840366,1.38253 7.681118,2.57377 11.52148,3.57227 3.84037,0.92168 7.60427,1.61337 11.29102,2.07422 3.76356,0.46084 7.29689,0.6914 10.59961,0.6914 6.60543,0 12.09659,-0.61483 16.47461,-1.84375 4.37802,-1.22892 7.87292,-2.95618 10.48437,-5.18359 2.61145,-2.22741 4.45595,-4.87888 5.53125,-7.95117 1.15211,-3.1491 1.72657,-6.56716 1.72657,-10.25391 0,-3.45633 -0.72816,-6.56697 -2.1875,-9.33203 -1.38254,-2.84187 -3.68816,-5.2224 -6.91407,-7.14258 -3.1491,-1.99699 -7.29531,-3.53212 -12.4414,-4.60742 -5.14609,-1.0753 -11.48265,-1.61328 -19.00977,-1.61328 l -11.98242,0 0,-25.00196 11.75195,0 c 7.06628,0 12.94171,-0.61288 17.62696,-1.84179 4.68524,-1.30573 8.41071,-3.03494 11.17578,-5.18555 2.84187,-2.22741 4.83812,-4.80007 5.99023,-7.71875 1.15211,-2.91868 1.72852,-6.02932 1.72852,-9.33203 0,-5.99097 -1.88293,-10.67712 -5.64649,-14.05664 -3.68675,-3.37952 -9.56218,-5.06836 -17.62695,-5.06836 -3.68675,0 -7.14323,0.38427 -10.36914,1.15234 -3.1491,0.69127 -6.10603,1.61157 -8.87109,2.76368 -2.68826,1.0753 -5.18407,2.30496 -7.48829,3.6875 -2.227408,1.30572 -4.262089,2.61224 -6.105464,3.91796 L 77.943359,133.10547 c 3.225908,-2.38103 6.718864,-4.56942 10.482422,-6.56641 3.840366,-1.99699 7.988535,-3.72621 12.443359,-5.18554 4.45483,-1.53615 9.25625,-2.72544 14.40234,-3.57032 5.14609,-0.84488 10.63726,-1.26758 16.47461,-1.26758 z m 134.22071,28.57227 c -4.07079,0 -7.52727,1.22967 -10.36914,3.6875 -2.76507,2.45783 -5.03031,6.1045 -6.79688,10.94336 -1.76657,4.83886 -3.03466,10.90643 -3.80273,18.20313 -0.76808,7.21988 -1.15235,15.6315 -1.15235,25.23242 0,19.20183 1.65237,33.64063 4.95508,43.31836 3.30272,9.67772 9.02444,14.51757 17.16602,14.51757 7.98796,0 13.70968,-4.80142 17.16601,-14.40234 3.53314,-9.60091 5.30078,-24.07815 5.30078,-43.43359 0,-19.27864 -1.76764,-33.75783 -5.30078,-43.43555 -3.45633,-9.75453 -9.17805,-14.63086 -17.16601,-14.63086 z"
       id="ellipse4313"
       inkscape:connector-curvature="0" />
  </g>
  <g
     inkscape:label="all"
     id="g4323"
     inkscape:groupmode="layer"
     style="display:none">
    <path
       style="display:inline;fill:#ffffff;fill-opacity:1;stroke:none;stroke-width:35;stroke-linejoin:round;stroke-miterlimit:4;stroke-dasharray:none;stroke-opacity:1"
       d="M 200,20 A 180,180.125 0 0 0 20,200.125 180,180.125 0 0 0 200,380.25 180,180.125 0 0 0 380,200.125 180,180.125 0 0 0 200,20 Z m -55.45312,114.99219 c 10.65127,0 20.71698,2.59918 30.19921,7.79492 9.61213,5.19574 18.44465,13.89742 26.49805,26.10742 7.66372,-10.39149 16.10763,-18.5083 25.33008,-24.35351 9.35234,-5.84522 19.93945,-8.76954 31.75976,-8.76954 9.22245,0 17.59899,1.62376 25.13282,4.8711 7.53382,3.11744 14.02884,7.53468 19.48437,13.25 5.45553,5.71532 9.67847,12.66436 12.66602,20.84765 2.98755,8.05341 4.48047,17.01676 4.48047,26.88868 0,8.70287 -1.49292,17.08136 -4.48047,25.13476 -2.98755,7.92351 -7.21049,14.93602 -12.66602,21.04102 -5.45553,5.9751 -11.95055,10.7829 -19.48437,14.41992 -7.53383,3.50713 -15.91037,5.25977 -25.13282,5.25977 -11.43063,0 -21.95232,-2.79349 -31.56445,-8.37891 -9.61212,-5.58543 -18.51006,-14.22169 -26.69336,-25.91211 -7.66372,10.00181 -16.30194,18.05516 -25.91406,24.16016 -9.48223,5.9751 -19.35364,8.96289 -29.61523,8.96289 -9.09256,0 -17.47105,-1.56029 -25.13477,-4.67774 -7.66372,-3.11744 -14.28762,-7.53273 -19.873048,-13.24805 -5.585423,-5.71531 -9.937241,-12.60089 -13.054687,-20.65429 -2.987552,-8.1833 -4.482422,-17.27554 -4.482422,-27.27735 0,-9.09255 1.49487,-17.59992 4.482422,-25.52343 2.987552,-7.92351 7.208532,-14.80714 12.664063,-20.65235 5.455532,-5.9751 12.015962,-10.65206 19.679682,-14.02929 7.66373,-3.50713 16.23652,-5.26172 25.71876,-5.26172 z m 1.55859,39.16406 c -3.76692,0 -7.14526,0.71375 -10.13281,2.14258 -2.98756,1.29893 -5.58478,3.18241 -7.79297,5.65039 -2.0783,2.46798 -3.70205,5.32688 -4.8711,8.57422 -1.03914,3.11744 -1.55859,6.55926 -1.55859,10.32617 0,3.37723 0.51945,6.62474 1.55859,9.74219 1.03915,3.11744 2.53402,5.90897 4.48243,8.37695 2.07829,2.33808 4.67552,4.22156 7.79296,5.65039 3.11745,1.42883 6.75357,2.14453 10.91016,2.14453 5.84521,0 11.36676,-2.1432 16.5625,-6.42969 5.32564,-4.28648 10.58551,-10.91234 15.78125,-19.875 -4.93596,-8.83276 -10.00152,-15.39124 -15.19727,-19.67773 -5.19574,-4.41638 -11.04047,-6.625 -17.53515,-6.625 z m 109.5,1.16797 c -11.30074,0 -22.21104,8.63822 -32.73242,25.91406 4.93595,8.44308 10.1304,15.00352 15.58593,19.67969 5.58543,4.67617 11.43212,7.01367 17.53711,7.01367 3.63702,0 6.948,-0.64833 9.93555,-1.94726 2.98755,-1.42883 5.52131,-3.37773 7.59961,-5.84571 2.0783,-2.46798 3.70205,-5.32688 4.87109,-8.57422 1.16905,-3.24734 1.75391,-6.68915 1.75391,-10.32617 0,-3.76691 -0.58486,-7.20872 -1.75391,-10.32617 -1.16904,-3.11745 -2.85821,-5.84551 -5.0664,-8.18359 -2.0783,-2.33809 -4.67553,-4.15615 -7.79297,-5.45508 -2.98755,-1.29894 -6.30048,-1.94922 -9.9375,-1.94922 z"
       id="ellipse4325"
       inkscape:connector-curvature="0" />
  </g>
  <g
     inkscape:groupmode="layer"
     id="layer3"
     inkscape:label="one text"
     style="display:none">
    <flowRoot
       xml:space="preserve"
       id="flowRoot4245-8"
       style="font-style:normal;font-weight:normal;font-size:86.18463898px;line-height:125%;font-family:sans-serif;letter-spacing:0px;word-spacing:0px;fill:#6effff;fill-opacity:1;stroke:none;stroke-width:1px;stroke-linecap:butt;stroke-linejoin:miter;stroke-opacity:1"
       transform="translate(165.76922,52.506566)"><flowRegion
         id="flowRegion4247-9"><rect
           id="rect4249-1"
           width="355.51163"
           height="366.2847"
           x="-11.977684"
           y="-75.425873"
           style="fill:#6effff;fill-opacity:1" /></flowRegion><flowPara
         id="flowPara4251-6"
         style="font-style:normal;font-variant:normal;font-weight:bold;font-stretch:normal;font-size:266.63372803px;font-family:'Droid Sans';-inkscape-font-specification:'Droid Sans';fill:#6effff;fill-opacity:1">1</flowPara></flowRoot>  </g>
</svg>
