<?xml version="1.0" encoding="UTF-8" standalone="no"?>
<!-- Created with Inkscape (http://www.inkscape.org/) -->

<svg
   xmlns:dc="http://purl.org/dc/elements/1.1/"
   xmlns:cc="http://creativecommons.org/ns#"
   xmlns:rdf="http://www.w3.org/1999/02/22-rdf-syntax-ns#"
   xmlns:svg="http://www.w3.org/2000/svg"
   xmlns="http://www.w3.org/2000/svg"
   xmlns:sodipodi="http://sodipodi.sourceforge.net/DTD/sodipodi-0.dtd"
   xmlns:inkscape="http://www.inkscape.org/namespaces/inkscape"
   id="svg4268"
   version="1.1"
   inkscape:version="0.91 r"
   width="500"
   height="500"
   viewBox="0 0 500 500"
   sodipodi:docname="github-active.svg">
  <metadata
     id="metadata4274">
    <rdf:RDF>
      <cc:Work
         rdf:about="">
        <dc:format>image/svg+xml</dc:format>
        <dc:type
           rdf:resource="http://purl.org/dc/dcmitype/StillImage" />
        <dc:title></dc:title>
      </cc:Work>
    </rdf:RDF>
  </metadata>
  <defs
     id="defs4272" />
  <sodipodi:namedview
     pagecolor="#ffffff"
     bordercolor="#666666"
     borderopacity="1"
     objecttolerance="10"
     gridtolerance="10"
     guidetolerance="10"
     inkscape:pageopacity="0"
     inkscape:pageshadow="2"
     inkscape:window-width="1920"
     inkscape:window-height="1056"
     id="namedview4270"
     showgrid="false"
     showguides="true"
     inkscape:guide-bbox="true"
     inkscape:zoom="1.475"
     inkscape:cx="269.55481"
     inkscape:cy="267.87967"
     inkscape:window-x="0"
     inkscape:window-y="24"
     inkscape:window-maximized="1"
     inkscape:current-layer="layer1">
    <sodipodi:guide
       position="400,400"
       orientation="0,1"
       id="guide4820"
       inkscape:label=""
       inkscape:color="rgb(0,0,255)" />
    <sodipodi:guide
       position="400,400"
       orientation="1,0"
       id="guide4822"
       inkscape:label=""
       inkscape:color="rgb(0,0,255)" />
  </sodipodi:namedview>
  <g
     inkscape:groupmode="layer"
     id="layer1"
     inkscape:label="Layer 1"
     style="display:inline"
     transform="translate(0,-780)">
    <path
       style="opacity:1;fill:#2dadb2;fill-opacity:0.53333336;stroke:#2dadb2;stroke-width:14.76202774;stroke-linejoin:round;stroke-miterlimit:4;stroke-dasharray:none;stroke-opacity:1"
       d="M 249.30495,793.47782 A 241.53615,241.53615 0 0 0 7.7687086,1035.0141 241.53615,241.53615 0 0 0 180.73225,1266.4791 c 1.91432,-0.6754 3.80481,-1.8474 5.36914,-3.8028 5.6367,-7.0459 3.66403,-19.7291 3.66403,-19.7291 l -0.56379,-33.8201 c 0,0 -24.94458,5.6066 -41.99333,1.4099 -9.15962,-2.2546 -15.95729,-4.9783 -22.54678,-9.8645 -5.45944,-4.0482 -9.61455,-9.7569 -13.2472,-15.5011 -3.658,-5.7843 -5.46911,-13.5242 -8.38444,-18.7416 -5.273953,-9.4384 -9.370698,-14.9375 -23.180599,-22.6879 -13.809904,-7.7505 2.395219,-10.991 2.395219,-10.991 0,0 6.806854,-1.8111 16.487536,2.8178 6.919034,3.3084 18.432594,13.8841 20.996654,17.4739 2.11376,2.9593 11.83721,18.8827 19.024,22.4056 10.12973,4.9655 26.91575,12.1194 50.44894,1.8325 l 1.26767,-0.7051 c 0,0 0.14116,-9.1593 2.67767,-14.2323 2.53652,-5.073 8.59597,-15.2193 11.2734,-16.4876 2.67744,-1.2683 -3.38167,-0.845 -9.58203,-1.8315 -6.20038,-0.9863 -22.96952,-3.5231 -32.27007,-7.3279 -9.30054,-3.8049 -23.64949,-10.2196 -32.83383,-18.8828 -9.84693,-9.2883 -18.46069,-20.7152 -22.26545,-33.9615 -3.80479,-13.2461 -11.272744,-34.6654 -9.440818,-55.803 1.831916,-21.1376 4.508758,-47.20714 23.814428,-61.86254 0,0 -11.13189,-39.73884 2.81892,-62.56745 0,0 25.22343,-4.79199 63.69387,24.23699 0,0 36.03906,-8.727 59.75425,-7.53128 23.71518,1.19572 28.2992,0.199 57.59442,7.57262 0,0 28.09962,-23.51627 65.16704,-24.11413 0,0 15.54396,21.52359 2.98887,62.17819 0,0 23.11705,14.74702 24.31277,69.5511 1.19573,54.8039 -29.69334,80.7113 -33.28051,83.7007 -3.58717,2.9893 -30.69029,23.7154 -73.73633,26.3061 0,0 13.3523,11.1603 14.9466,28.0996 1.5943,16.9395 -0.19941,80.7111 0.39845,83.1025 0.59784,2.3915 1.59448,9.7645 14.54816,8.3696 0.39286,-0.043 0.75588,-0.066 1.09541,-0.077 a 241.53615,241.53615 0 0 0 168.69671,-230 241.53615,241.53615 0 0 0 -241.53628,-241.53628 z"
       id="path4824"
       inkscape:connector-curvature="0" />
  </g>
  <g
     inkscape:groupmode="layer"
     id="layer2"
     inkscape:label="Layer 2"
     style="display:inline"
     transform="translate(0,-780)" />
</svg>
